<svg width="20" height="20" fill="none" xmlns="http://www.w3.org/2000/svg"><path d="M10 20a10 10 0 1 0 0-20 10 10 0 0 0 0 20Z" fill="#000"/><path d="m5.66 9.3-.5-.37 3.25-4.2 3.16 3.05 3-2.4.39.49-3.43 2.74-3.05-2.95L5.66 9.3Z" fill="#CED5E0"/><path d="M1.72 15.6a10 10 0 0 0 16.56 0H1.72Z" fill="#2B3B4E"/><path d="M15.64 15.26h-1.96a.08.08 0 0 1-.08-.08V8.1c0-.04.04-.08.08-.08h1.96c.04 0 .08.04.08.08v7.08c0 .04-.04.08-.08.08ZM12.53 15.26h-1.95a.08.08 0 0 1-.08-.08v-5c0-.05.03-.08.08-.08h1.95c.05 0 .08.03.08.08v5c0 .04-.04.08-.08.08ZM9.42 15.26H7.47a.08.08 0 0 1-.08-.08V7.65c0-.05.03-.08.08-.08h1.95c.05 0 .09.03.09.08v7.53c0 .04-.04.08-.09.08ZM6.32 15.26H4.36a.08.08 0 0 1-.08-.08v-3.71c0-.05.04-.08.08-.08h1.96c.04 0 .08.03.08.08v3.71c0 .04-.04.08-.08.08Z" fill="#fff"/><path d="M17.1 14.93H2.9v.68h14.2v-.68Z" fill="#CED5E0"/><path d="M14.76 6.8a1.16 1.16 0 1 0 0-2.34 1.16 1.16 0 0 0 0 2.33Z" fill="#E6E9EE"/><path d="M14.76 6.3a.68.68 0 1 0 0-1.35.68.68 0 0 0 0 1.35Z" fill="#fff"/><path d="M11.55 9.24a1.16 1.16 0 1 0 0-2.33 1.16 1.16 0 0 0 0 2.33Z" fill="#E6E9EE"/><path d="M11.55 8.76a.68.68 0 1 0 0-1.36.68.68 0 0 0 0 1.36Z" fill="#fff"/><path d="M8.45 6.35a1.16 1.16 0 1 0 0-2.33 1.16 1.16 0 0 0 0 2.33Z" fill="#E6E9EE"/><path d="M8.45 5.87a.68.68 0 1 0 0-1.36.68.68 0 0 0 0 1.36Z" fill="#fff"/><path d="M5.34 10.28a1.16 1.16 0 1 0 0-2.33 1.16 1.16 0 0 0 0 2.33Z" fill="#E6E9EE"/><path d="M5.34 9.8a.68.68 0 1 0 0-1.36.68.68 0 0 0 0 1.35Z" fill="#fff"/></svg>