<svg width="22" height="18" fill="none" xmlns="http://www.w3.org/2000/svg"><path d="M21.56 0H.44C.2 0 0 .2 0 .44V14.4c0 .25.2.45.44.45h7.73v2.28H6.6a.44.44 0 0 0 0 .88h8.78a.44.44 0 0 0 0-.88h-1.56v-2.29h7.73c.24 0 .44-.2.44-.44V.44c0-.24-.2-.44-.44-.44Zm-8.6 17.12H9.04v-2.28h3.92v2.28Zm8.16-3.17H.88V.88h20.24v13.07Z" fill="#000"/><path d="M10.25 1.91H2.4c-.25 0-.44.2-.44.45v5.7c0 .24.2.44.44.44h7.85c.25 0 .44-.2.44-.44v-5.7c0-.25-.2-.45-.44-.45Zm-6.78 5.7 1.4-1.4 1.39 1.4H3.47Zm6.35 0H7.49a.44.44 0 0 0-.03-.04l-.76-.75L8.4 5.1l1.42 1.42v1.1Zm0-2.34-1.1-1.1a.44.44 0 0 0-.62 0L6.08 6.18l-.9-.91a.44.44 0 0 0-.62 0L2.83 7V2.8h6.99v2.47Z" fill="#000"/><path d="m20 2.7-.8-.79c-.4-.4-1.06-.4-1.47 0l-5.68 5.72a.44.44 0 0 0-.11.19l-.62 2.05H2.4c-.25 0-.44.2-.44.44s.2.44.44.44h9.26c.06 0 .12-.01.18-.04l2.28-.7a.44.44 0 0 0 .18-.1L20 4.18a1.04 1.04 0 0 0 0-1.47Zm-7.7 6.95.26-.87.6.6-.86.27Zm1.7-.68-1.02-1.02 4.45-4.48 1.01 1.02L14 8.97Zm5.37-5.41-.3.3-1.02-1.02.3-.3a.16.16 0 0 1 .23 0l.8.8a.16.16 0 0 1 0 .22ZM17.7 12H2.4c-.25 0-.44.19-.44.43 0 .25.2.44.44.44h15.3c.25 0 .44-.2.44-.44s-.2-.44-.44-.44ZM19.65 12h-.24c-.24 0-.43.19-.43.43 0 .25.2.44.43.44h.24a.44.44 0 0 0 0-.88Z" fill="#000"/></svg>