<svg width="20" height="20" fill="none" xmlns="http://www.w3.org/2000/svg"><path d="M17.07 2.93A9.93 9.93 0 0 0 9.99 0a10 10 0 0 0-7.7 16.38c-.32.64-.83 1.4-1.6 1.77a.94.94 0 0 0 .27 1.77 5.97 5.97 0 0 0 4.3-1.1 9.94 9.94 0 0 0 11.8-1.75A9.93 9.93 0 0 0 20.01 10a9.93 9.93 0 0 0-2.93-7.07Zm-.81 13.33A8.86 8.86 0 0 1 5.5 17.64a.57.57 0 0 0-.7.09 5.6 5.6 0 0 0-1.35-1.17.58.58 0 0 0 .04-.37.6.6 0 0 0-.14-.32 8.87 8.87 0 1 1 12.9.4Z" fill="#000"/><path d="M10 10.7a.7.7 0 1 0 0-1.4.7.7 0 0 0 0 1.4ZM13.61 10.7a.7.7 0 1 0 0-1.4.7.7 0 0 0 0 1.4ZM6.38 10.7a.7.7 0 1 0 0-1.4.7.7 0 0 0 0 1.4Z" fill="#000"/></svg>