<svg width="20" height="21" fill="none" xmlns="http://www.w3.org/2000/svg"><path d="M2.83 4.37c.23.18.56.14.73-.1A8.02 8.02 0 0 1 10 1.07c2.54 0 4.9 1.17 6.44 3.22a.52.52 0 0 0 .73.1c.23-.18.28-.51.1-.75A9.06 9.06 0 0 0 10 0a9.05 9.05 0 0 0-7.27 3.63.53.53 0 0 0 .1.74ZM15.58 7.2c0 .9.73 1.65 1.63 1.65.9 0 1.64-.74 1.64-1.65 0-.91-.73-1.66-1.64-1.66-.9 0-1.63.75-1.63 1.66ZM18.89 9.4l-.42-.13a.49.49 0 0 0-.43.08l-.83.62-.82-.62a.49.49 0 0 0-.44-.08l-.41.13c-.67.22-1.11.85-1.11 1.55v2.5c0 .1.02.19.08.27l.83 1.28v3.34c0 .28.22.5.49.5h2.77a.5.5 0 0 0 .49-.5V15l.83-1.28a.5.5 0 0 0 .08-.27v-2.5c0-.7-.45-1.33-1.11-1.55ZM2.79 8.85c.9 0 1.63-.74 1.63-1.65 0-.91-.73-1.66-1.63-1.66-.9 0-1.64.75-1.64 1.66 0 .9.73 1.65 1.64 1.65ZM4.46 9.4l-.41-.13a.49.49 0 0 0-.44.08l-.82.62-.83-.62a.49.49 0 0 0-.43-.08l-.42.13C.45 9.62 0 10.25 0 10.95v2.5c0 .1.03.19.08.27L.91 15v3.34c0 .28.22.5.49.5h2.77a.5.5 0 0 0 .5-.5V15l.82-1.28a.5.5 0 0 0 .08-.27v-2.5c0-.7-.44-1.33-1.1-1.55Z" fill="#000"/><path d="M12.11 4.87c0-1.18-.95-2.13-2.11-2.13s-2.11.95-2.11 2.13C7.89 6.04 8.84 7 10 7s2.11-.96 2.11-2.13ZM12.32 8.03l-.6-.19a.19.19 0 0 0-.24.12l-1.27 3.51c-.07.2-.35.2-.43 0l-1.26-3.5a.19.19 0 0 0-.18-.13l-.66.2C6.91 8.28 6.4 9 6.4 9.81v3.72c0 .03 0 .07.03.1l1.32 2.03v5.14c0 .1.09.19.19.19h4.12c.1 0 .19-.08.19-.19v-5.14l1.32-2.03a.19.19 0 0 0 .03-.1V9.82c0-.82-.52-1.54-1.28-1.79Z" fill="#000"/><path d="M10.5 7.96a.28.28 0 0 0-.21-.09H9.7a.28.28 0 0 0-.2.09.27.27 0 0 0-.04.32l.3.47-.14 1.23.29.76c.03.08.13.08.16 0l.29-.76-.15-1.23.31-.47a.27.27 0 0 0-.03-.32Z" fill="#000"/></svg>