<svg width="31" height="19" fill="none" xmlns="http://www.w3.org/2000/svg"><path d="M24.02 19H6.04A6.06 6.06 0 0 1 5.9 6.86 9.43 9.43 0 0 1 23.28 5 7 7 0 0 1 31 11.98 7 7 0 0 1 24.03 19ZM6.04 7.8a5.12 5.12 0 0 0 0 10.26h17.98a6.07 6.07 0 1 0-.93-12.08.47.47 0 0 1-.5-.25A8.5 8.5 0 0 0 6.7 7.46a.49.49 0 0 1-.45.35l-.21-.01Z" fill="#fff"/><path d="M24.02 19a.47.47 0 0 1 0-.94 6.07 6.07 0 1 0-4.56-10.07.47.47 0 0 1-.66.04.47.47 0 0 1-.04-.66A6.96 6.96 0 0 1 31 11.98 7 7 0 0 1 24.02 19Z" fill="#fff"/></svg>