<svg width="19" height="16" fill="none" xmlns="http://www.w3.org/2000/svg"><path d="M18.34 0H.66C.29 0 0 .3 0 .65V11.1h19V.65c0-.36-.3-.65-.66-.65Zm-.32 10.12H.98V.98h17.04v9.14Z" fill="#4353FF"/><path d="M7.53 5.06c.1 0 .17.07.17.16h.49v-.49h-.66a.16.16 0 1 1 0-.32h.66V2.29H5.24v2.93h2.13c0-.09.07-.16.16-.16Z" fill="#4353FF"/><path d="M.98 10.12h17.04V.98H.98v9.14Zm7.21-.81h-.66a.16.16 0 1 1 0-.33h.66a.16.16 0 1 1 0 .33Zm-.66-1.64c.1 0 .17.08.17.17v.65a.16.16 0 0 1-.33 0v-.65c0-.1.07-.17.16-.17Zm-.16-.49v-.65a.16.16 0 0 1 .33 0v.65a.16.16 0 0 1-.33 0ZM9.5 9.31h-.66a.16.16 0 1 1 0-.33h.66a.16.16 0 1 1 0 .33Zm2.78-.82a.16.16 0 0 1-.32 0v-.65a.16.16 0 0 1 .32 0v.65Zm0-1.3a.16.16 0 0 1-.32 0v-.66a.16.16 0 0 1 .32 0v.65Zm0-1.31a.16.16 0 0 1-.32 0v-.66a.16.16 0 0 1 .32 0v.66Zm1.48.32V1.96c0-.18.15-.33.33-.33h2.94c.19 0 .33.15.33.33v7.18c0 .18-.14.33-.33.33H14.1a.33.33 0 0 1-.33-.33V6.2Zm-2.3-1.8h.66a.16.16 0 1 1 0 .33h-.65a.16.16 0 1 1 0-.32Zm0 4.58h.66a.16.16 0 1 1 0 .33h-.65a.16.16 0 1 1 0-.33Zm-1.3-4.57h.65a.16.16 0 1 1 0 .32h-.65a.16.16 0 1 1 0-.32Zm0 4.57h.65a.16.16 0 1 1 0 .33h-.65a.16.16 0 1 1 0-.33ZM4.59 1.96c0-.18.14-.33.32-.33h3.6c.19 0 .33.15.33.33V4.4h.66a.16.16 0 1 1 0 .32h-.66v.82l-.01.1.86.77c.07.06.05.18-.04.22l-.32.14.29.66a.16.16 0 0 1-.15.23.16.16 0 0 1-.15-.1l-.3-.66-.32.14a.13.13 0 0 1-.18-.12l.01-1.05H7.7a.16.16 0 0 1-.33 0H4.91a.33.33 0 0 1-.32-.33v-3.6Zm-2.95 0c0-.18.14-.33.33-.33h.98c.18 0 .33.15.33.33v7.18c0 .18-.15.33-.33.33h-.98a.33.33 0 0 1-.33-.33V1.96ZM0 12.4c0 .37.3.66.66.66h17.68c.37 0 .66-.3.66-.65v-1.3H0v1.3Zm9.5-.8a.5.5 0 1 1 0 .97.5.5 0 0 1 0-.98ZM6.6 15.35h5.8l-.2-1.64H6.8l-.2 1.64Z" fill="#4353FF"/><path d="M6.55 15.35a.33.33 0 1 0 0 .65h5.9a.33.33 0 1 0 0-.65h-5.9ZM6.8 13.71h5.4l-.08-.65H6.88l-.08.65ZM9.5 12.57a.5.5 0 1 0 0-.98.5.5 0 0 0 0 .98ZM1.97 9.47h.98c.18 0 .33-.15.33-.33V1.96a.33.33 0 0 0-.33-.33h-.98a.33.33 0 0 0-.33.33v7.18c0 .18.14.33.33.33Zm.32-7.18h.33a.33.33 0 1 1 0 .65h-.33a.33.33 0 1 1 0-.65Zm0 .98h.33a.33.33 0 1 1 0 .65h-.33a.33.33 0 1 1 0-.65Zm0 .97h.33a.33.33 0 1 1 0 .66h-.33a.33.33 0 1 1 0-.66Zm0 .98h.33a.33.33 0 1 1 0 .66h-.33a.33.33 0 1 1 0-.66Zm0 .98h.33a.33.33 0 1 1 0 .66h-.33a.33.33 0 1 1 0-.66Zm-.32 1.64c0-.18.14-.33.32-.33h.33c.18 0 .33.15.33.33v.65c0 .18-.15.33-.33.33h-.33a.33.33 0 0 1-.32-.33v-.65Z" fill="#4353FF"/><path d="M2.3 2.94h.32a.33.33 0 1 0 0-.65H2.3a.33.33 0 1 0 0 .65ZM2.3 3.92h.32a.33.33 0 1 0 0-.65H2.3a.33.33 0 1 0 0 .65ZM2.3 4.9h.32a.33.33 0 1 0 0-.66H2.3a.33.33 0 1 0 0 .66ZM2.3 5.88h.32a.33.33 0 1 0 0-.66H2.3a.33.33 0 1 0 0 .66ZM2.3 6.86h.32a.33.33 0 1 0 0-.66H2.3a.33.33 0 1 0 0 .66ZM2.3 8.82h.32c.18 0 .33-.15.33-.33v-.65a.33.33 0 0 0-.33-.33H2.3a.33.33 0 0 0-.32.33v.65c0 .18.14.33.32.33ZM17.36 1.96a.33.33 0 0 0-.33-.33H14.1a.33.33 0 0 0-.33.33v1.96h3.6V1.96Zm-.49 1.63h-2.62a.16.16 0 1 1 0-.32h2.62a.16.16 0 1 1 0 .32Zm0-.65h-2.62a.16.16 0 1 1 0-.33h2.62a.16.16 0 1 1 0 .33Zm0-.65h-2.62a.16.16 0 1 1 0-.33h2.62a.16.16 0 1 1 0 .33ZM14.09 9.47h2.94c.19 0 .33-.15.33-.33V6.2h-3.6v2.94c0 .18.15.33.33.33Zm1.47-2.94h1.31a.16.16 0 1 1 0 .33h-1.31a.16.16 0 1 1 0-.33Zm0 .65h1.31a.16.16 0 1 1 0 .33h-1.31a.16.16 0 1 1 0-.33Zm0 .66h1.31a.16.16 0 1 1 0 .32h-1.31a.16.16 0 1 1 0-.32Zm0 .65h1.31a.16.16 0 1 1 0 .33h-1.31a.16.16 0 1 1 0-.33Zm-.65-1.96a.16.16 0 1 1 0 .33.16.16 0 0 1 0-.33Zm0 .65a.16.16 0 1 1 0 .33.16.16 0 0 1 0-.33Zm0 .66a.16.16 0 1 1 0 .32.16.16 0 0 1 0-.32Zm0 .65a.16.16 0 1 1 0 .33.16.16 0 0 1 0-.33Zm-.66-1.96a.16.16 0 1 1 0 .33.16.16 0 0 1 0-.33Zm0 .65a.16.16 0 1 1 0 .33.16.16 0 0 1 0-.33Zm0 .66a.16.16 0 1 1 0 .32.16.16 0 0 1 0-.32Zm0 .65a.16.16 0 1 1 0 .33.16.16 0 0 1 0-.33ZM17.36 3.92h-3.6V6.2h3.6V3.92Zm-2.78 1.96h-.33a.16.16 0 1 1 0-.33h.33a.16.16 0 1 1 0 .33Zm0-.66h-.33a.16.16 0 1 1 0-.32h.33a.16.16 0 1 1 0 .32Zm0-.65h-.33a.16.16 0 1 1 0-.33h.33a.16.16 0 1 1 0 .33Zm2.3 1.3h-1.65a.16.16 0 1 1 0-.32h1.64a.16.16 0 1 1 0 .33Zm0-.65h-1.65a.16.16 0 1 1 0-.32h1.64a.16.16 0 1 1 0 .32Zm0-.65h-1.65a.16.16 0 1 1 0-.33h1.64a.16.16 0 1 1 0 .33Z" fill="#4353FF"/><path d="M16.87 1.96h-1.96a.16.16 0 1 1 0 .33h1.96a.16.16 0 1 0 0-.33ZM14.41 2.12c0-.09.08-.16.17-.16h-.33a.16.16 0 1 0 0 .33h.33a.16.16 0 0 1-.17-.17ZM16.87 3.27h-1.31a.16.16 0 1 1 0 .32h1.31a.16.16 0 1 0 0-.32ZM15.07 3.43c0-.1.07-.16.16-.16h-.98a.16.16 0 1 0 0 .32h.98a.16.16 0 0 1-.16-.16ZM16.87 4.24h-1.64a.16.16 0 1 0 0 .33h1.64a.16.16 0 1 0 0-.33ZM16.05 2.78c0-.1.08-.17.17-.17h-1.97a.16.16 0 1 0 0 .33h1.97a.16.16 0 0 1-.17-.16ZM16.87 2.61h-.33a.16.16 0 1 1 0 .33h.33a.16.16 0 1 0 0-.33Z" fill="#4353FF"/><path d="M15.07 2.12a.16.16 0 0 0-.16-.16h-.33a.16.16 0 1 0 0 .33h.33c.09 0 .16-.08.16-.17ZM15.72 3.43a.16.16 0 0 0-.16-.16h-.33a.16.16 0 1 0 0 .32h.33c.1 0 .16-.07.16-.16ZM14.58 4.24h-.33a.16.16 0 1 0 0 .33h.33a.16.16 0 1 0 0-.33ZM16.87 4.9h-1.64a.16.16 0 1 0 0 .32h1.64a.16.16 0 1 0 0-.32ZM14.58 4.9h-.33a.16.16 0 1 0 0 .32h.33a.16.16 0 1 0 0-.32ZM16.87 5.55h-1.64a.16.16 0 1 0 0 .33h1.64a.16.16 0 1 0 0-.33ZM14.58 5.55h-.33a.16.16 0 1 0 0 .33h.33a.16.16 0 1 0 0-.33ZM14.25 7.51a.16.16 0 1 0 0-.33.16.16 0 0 0 0 .33ZM14.25 6.86a.16.16 0 1 0 0-.33.16.16 0 0 0 0 .33ZM14.25 8.82a.16.16 0 1 0 0-.33.16.16 0 0 0 0 .33ZM14.25 8.16a.16.16 0 1 0 0-.32.16.16 0 0 0 0 .32ZM14.9 7.51a.16.16 0 1 0 0-.33.16.16 0 0 0 0 .33ZM14.9 6.86a.16.16 0 1 0 0-.33.16.16 0 0 0 0 .33ZM14.9 8.82a.16.16 0 1 0 0-.33.16.16 0 0 0 0 .33ZM14.9 8.16a.16.16 0 1 0 0-.32.16.16 0 0 0 0 .32ZM15.56 7.51h1.31a.16.16 0 1 0 0-.33h-1.31a.16.16 0 1 0 0 .33ZM15.56 6.86h1.31a.16.16 0 1 0 0-.33h-1.31a.16.16 0 1 0 0 .33ZM15.56 8.82h1.31a.16.16 0 1 0 0-.33h-1.31a.16.16 0 1 0 0 .33ZM15.56 8.16h1.31a.16.16 0 1 0 0-.32h-1.31a.16.16 0 1 0 0 .32ZM16.7 2.78a.16.16 0 0 0-.16-.17h-.32a.16.16 0 1 0 0 .33h.32c.1 0 .17-.07.17-.16ZM4.91 5.88h2.46v-.66H5.24V2.3H8.2V4.4a.16.16 0 1 1 0 .32v.5h-.5v.65h.84v-.2c0-.11.14-.17.22-.1l.08.07a.33.33 0 0 0 .02-.1v-.82a.16.16 0 1 1 0-.32V1.96a.33.33 0 0 0-.33-.33h-3.6a.33.33 0 0 0-.33.33v3.6c0 .17.14.32.32.32ZM7.53 7.35c.1 0 .17-.08.17-.17v-.65a.16.16 0 0 0-.33 0v.65c0 .1.07.17.16.17ZM11.47 9.3h.65a.16.16 0 1 0 0-.32h-.65a.16.16 0 1 0 0 .33ZM12.12 7.67a.16.16 0 0 0-.16.17v.65a.16.16 0 0 0 .32 0v-.65a.16.16 0 0 0-.16-.17ZM11.47 4.73h.65a.16.16 0 1 0 0-.32h-.65a.16.16 0 1 0 0 .32ZM12.12 5.06a.16.16 0 0 0-.16.16v.66a.16.16 0 0 0 .32 0v-.66a.16.16 0 0 0-.16-.16ZM9.5 8.98h-.66a.16.16 0 1 0 0 .33h.66a.16.16 0 1 0 0-.33Z" fill="#4353FF"/><path d="M7.53 5.06c-.09 0-.16.07-.16.16v.66a.16.16 0 0 0 .33 0v-.66a.16.16 0 0 0-.17-.16ZM8.19 8.98h-.66a.16.16 0 1 0 0 .33h.66a.16.16 0 1 0 0-.33ZM7.37 8.49a.16.16 0 0 0 .33 0v-.65a.16.16 0 0 0-.33 0v.65ZM12.12 6.37a.16.16 0 0 0-.16.16v.65a.16.16 0 0 0 .32 0v-.65a.16.16 0 0 0-.16-.16ZM10.15 4.73h.66a.16.16 0 1 0 0-.32h-.66a.16.16 0 1 0 0 .32ZM7.37 4.57c0 .1.07.16.17.16h.65a.16.16 0 1 0 0-.32h-.65c-.1 0-.17.07-.17.16ZM10.15 9.3h.66a.16.16 0 1 0 0-.32h-.66a.16.16 0 1 0 0 .33ZM8.68 4.57c0 .1.07.16.16.16h.66a.16.16 0 1 0 0-.32h-.66c-.09 0-.16.07-.16.16ZM8.53 5.68v.2l-.01 1.05c0 .1.1.16.18.12l.33-.14.29.66a.16.16 0 0 0 .3-.13l-.3-.66.33-.14c.1-.04.1-.16.04-.22l-.86-.77-.08-.07a.13.13 0 0 0-.22.1Z" fill="#4353FF"/></svg>