<svg width="21" height="21" fill="none" xmlns="http://www.w3.org/2000/svg"><path d="M10.5 21a10.5 10.5 0 1 0 0-21 10.5 10.5 0 0 0 0 21Z" fill="#000"/><path d="M10.88 3.62a6.5 6.5 0 0 0-5.7 9.6l-.8 3.4 3.4-.8a6.5 6.5 0 1 0 3.1-12.2Z" fill="#fff"/><path d="M11.23 11.59h-1.21v-.66c0-.28.03-.5.1-.63.07-.14.21-.33.45-.55l.78-.78c.16-.18.25-.4.25-.67a.9.9 0 0 0-.26-.66.9.9 0 0 0-.67-.26.97.97 0 0 0-1 .92h-1.3c.08-.64.32-1.13.75-1.5.42-.35.95-.53 1.6-.53.63 0 1.14.17 1.54.52.4.34.6.83.6 1.45 0 .43-.11.78-.35 1.07a5.27 5.27 0 0 1-.9.93l-.2.2c-.12.16-.19.39-.19.67v.48Zm-.59 2.38a.83.83 0 0 1-.58-.23.73.73 0 0 1-.25-.56c0-.22.08-.4.24-.56a.8.8 0 0 1 .58-.24c.23 0 .42.08.58.23.17.16.25.34.25.56 0 .22-.08.4-.24.56a.79.79 0 0 1-.58.24Z" fill="#000"/></svg>