<svg width="13" height="19" fill="none" xmlns="http://www.w3.org/2000/svg"><path d="M11.26 9.46c.4-3.4-1.14-6.86-4.39-9.35a.66.66 0 0 0-.74 0c-3.25 2.5-4.8 5.95-4.4 9.35A4.4 4.4 0 0 0 0 12.86c0 1.28.64 2.5 1.8 3.43.28.23 1 .12.88-.38-.06-.26-.13-.52-.13-.77 0-.63.24-1.23.7-1.73.08.03.17.05.26.05h5.98c.1 0 .18-.02.26-.05.46.5.7 1.1.7 1.73 0 .25-.08.5-.13.77-.1.56.65.58.89.38A4.45 4.45 0 0 0 13 12.85c0-1.27-.62-2.47-1.74-3.39ZM6.5.98c.94.78 1.7 1.65 2.3 2.58H4.2A11 11 0 0 1 6.5.98ZM1.55 14.6a3.35 3.35 0 0 1 .39-4.02c0 .03.56 1.65.77 2.06a3.45 3.45 0 0 0-1.16 1.96Zm7.6-1.94h-5.3a8.62 8.62 0 0 1-.12-8.3h5.54a8.62 8.62 0 0 1-.13 8.3Zm1.14-.02c.3-.57.76-2.04.77-2.06.58.67.88 1.46.88 2.28 0 .61-.17 1.2-.49 1.74a3.5 3.5 0 0 0-1.16-1.96Z" fill="#fff"/><path d="M4.37 14.13c-.3 0-.53.19-.53.4v2.04c0 .22.24.4.53.4.29 0 .53-.18.53-.4v-2.03c0-.23-.24-.4-.53-.4ZM6.5 14.13a.62.62 0 0 0-.38.12.4.4 0 0 0-.13.19.38.38 0 0 0-.02.1v4.06l.01.09c.06.18.26.31.51.31s.46-.13.51-.31a.3.3 0 0 0 .02-.1v-4.05c0-.04 0-.08-.02-.11-.06-.17-.26-.3-.5-.3ZM8.62 14.13c-.29 0-.52.19-.52.4v2.04c0 .22.24.4.52.4.3 0 .53-.18.53-.4v-2.03c0-.23-.23-.4-.53-.4Z" fill="#fff"/></svg>