<svg width="19" height="19" fill="none" xmlns="http://www.w3.org/2000/svg"><path d="M18.02 7.39h-1.78a.66.66 0 0 1-.63-.42.66.66 0 0 1 .15-.75l1.26-1.25a.97.97 0 0 0 0-1.39l-1.6-1.6a1 1 0 0 0-1.39 0l-1.25 1.26c-.2.2-.48.26-.75.15a.66.66 0 0 1-.42-.63V.98a.98.98 0 0 0-.98-.98H8.37a.98.98 0 0 0-.98.98v1.78c0 .28-.16.52-.42.63a.66.66 0 0 1-.75-.15L4.97 1.98a1 1 0 0 0-1.39 0l-1.6 1.6a.97.97 0 0 0 0 1.39l1.26 1.25c.2.2.26.48.15.75a.66.66 0 0 1-.63.42H.98a.98.98 0 0 0-.98.98v2.26c0 .54.44.98.98.98h1.78c.28 0 .52.16.63.42.1.27.05.54-.15.75l-1.26 1.25a.97.97 0 0 0 0 1.39l1.6 1.6a1 1 0 0 0 1.39 0l1.25-1.26c.2-.2.48-.26.75-.15.26.11.42.35.42.63v1.78c0 .54.44.98.98.98h2.26c.54 0 .98-.44.98-.98v-1.78c0-.28.16-.52.42-.63a.66.66 0 0 1 .75.15l1.25 1.26a1 1 0 0 0 1.39 0l1.6-1.6a.97.97 0 0 0 0-1.39l-1.26-1.25a.66.66 0 0 1-.15-.75c.11-.26.35-.42.63-.42h1.78c.54 0 .98-.44.98-.98V8.37a.98.98 0 0 0-.98-.98Zm.28 3.24c0 .15-.13.28-.28.28h-1.78c-.57 0-1.06.33-1.28.85-.22.53-.1 1.11.3 1.51l1.26 1.26c.1.1.1.28 0 .39l-1.6 1.6c-.1.1-.28.1-.39 0l-1.26-1.26c-.4-.4-.98-.51-1.5-.3-.53.22-.86.71-.86 1.28v1.78c0 .15-.13.28-.28.28H8.37a.27.27 0 0 1-.28-.28v-1.78c0-.57-.33-1.06-.85-1.28a1.37 1.37 0 0 0-1.51.3l-1.26 1.26c-.1.1-.28.1-.39 0l-1.6-1.6a.27.27 0 0 1 0-.39l1.26-1.26c.4-.4.52-.98.3-1.5-.22-.53-.71-.86-1.28-.86H.98a.27.27 0 0 1-.28-.28V8.37c0-.15.13-.28.28-.28h1.78c.57 0 1.06-.33 1.28-.85.22-.53.1-1.11-.3-1.51L2.48 4.47a.27.27 0 0 1 0-.39l1.6-1.6c.1-.1.28-.1.39 0l1.26 1.26c.4.4.98.51 1.5.3.53-.22.86-.71.86-1.28V.98c0-.15.13-.28.28-.28h2.26c.15 0 .28.13.28.28v1.78c0 .57.33 1.06.85 1.28.53.22 1.11.1 1.51-.3l1.26-1.26c.1-.1.28-.1.39 0l1.6 1.6c.1.1.1.28 0 .39l-1.26 1.26c-.4.4-.52.98-.3 1.5.22.54.71.86 1.28.86h1.78c.15 0 .28.13.28.28v2.26Z" fill="#000"/><path d="M9.5 6.33a3.17 3.17 0 1 0 0 6.34 3.17 3.17 0 0 0 0-6.34Zm0 5.63a2.47 2.47 0 1 1 0-4.93 2.47 2.47 0 0 1 0 4.93Z" fill="#000"/></svg>