<svg width="19" height="19" fill="none" xmlns="http://www.w3.org/2000/svg"><path d="M19 6.23c0-.1-.02-.19-.06-.27L16.1.27a.46.46 0 0 0-.4-.27H3.29c-.17 0-.32.1-.4.27L.05 5.97a.6.6 0 0 0-.06.26C0 7.5.67 8.6 1.63 9.08v9.39c0 .29.21.53.47.53H16.9c.26 0 .47-.24.47-.53V9.09A3.17 3.17 0 0 0 19 6.23ZM3.56 1.07h11.88l2.2 4.45H1.36l2.21-4.45Zm9.96 5.52c-.15.96-.88 1.68-1.76 1.68S10.14 7.55 10 6.6h3.52Zm-4.51 0c-.15.96-.88 1.68-1.77 1.68-.88 0-1.61-.72-1.76-1.68H9Zm-8.05 0H4.5c-.15.96-.88 1.68-1.76 1.68-.89 0-1.62-.72-1.77-1.68Zm15.31 1.69c-.88 0-1.61-.73-1.76-1.69h3.53c-.15.96-.88 1.69-1.77 1.69Z" fill="#fff"/></svg>