<svg width="18" height="16" fill="none" xmlns="http://www.w3.org/2000/svg"><path d="M17.66 15.66v-.9c0-.2-.08-.38-.23-.5-.82-.67-1.7-1.12-1.88-1.21-.01-.01-.03-.03-.03-.05v-1.28a.6.6 0 0 0 .27-.5V9.9c0-.66-.53-1.2-1.2-1.2h-.28a1.2 1.2 0 0 0-1.19 1.2v1.32c0 .2.1.39.27.5v1.27c0 .03-.01.05-.04.06-.18.09-1.06.53-1.87 1.2a.64.64 0 0 0-.23.5v.9M6.74 15.66v-.9c0-.2-.09-.38-.24-.5-.81-.67-1.7-1.12-1.87-1.21-.02-.01-.04-.03-.04-.05v-1.28a.6.6 0 0 0 .27-.5V9.9c0-.66-.53-1.2-1.19-1.2H3.38A1.2 1.2 0 0 0 2.2 9.9v1.32c0 .2.1.39.26.5v1.27c0 .03-.01.05-.03.06-.18.09-1.06.53-1.88 1.2a.64.64 0 0 0-.23.5v.9M9.02 7.65A.34.34 0 0 0 8.7 8v2.13l-1.83 1.06c-.16.09-.21.3-.12.46a.33.33 0 0 0 .46.12l1.82-1.06 1.83 1.06a.34.34 0 0 0 .46-.12.34.34 0 0 0-.12-.46l-1.83-1.06V7.99a.34.34 0 0 0-.34-.34ZM7.6 4.46c-.34.18-1.09.6-1.8 1.17a.98.98 0 0 0-.34.76v.9c0 .19.15.34.33.34.18 0 .34-.15.34-.34v-.9c0-.1.04-.18.1-.24.8-.65 1.65-1.09 1.82-1.17a.4.4 0 0 0 .22-.35V3.35a.33.33 0 0 0-.15-.28.26.26 0 0 1-.12-.22V1.53c0-.48.38-.86.85-.86h.29c.47 0 .85.38.85.86v1.32c0 .1-.04.17-.12.22a.34.34 0 0 0-.14.28v1.28c0 .15.08.29.22.36.16.08 1.02.51 1.8 1.16a.3.3 0 0 1 .12.24v.9c0 .2.15.35.33.35.19 0 .34-.16.34-.34v-.9c0-.3-.13-.58-.36-.76-.7-.58-1.45-1-1.78-1.18v-.95c.17-.18.26-.4.26-.65V1.53C10.66.68 9.98 0 9.14 0h-.28c-.84 0-1.52.68-1.52 1.53v1.32c0 .25.1.48.26.65v.96Z" fill="#000"/><path d="M3.4 9.03h.28c.47 0 .85.39.85.86v1.33c0 .09-.05.17-.12.22a.34.34 0 0 0-.15.27V13c0 .16.09.3.22.36.17.08 1.02.51 1.81 1.17a.3.3 0 0 1 .11.24v.9c0 .19.16.34.34.34.18 0 .33-.15.33-.34v-.9c0-.3-.12-.57-.35-.76-.7-.58-1.45-1-1.79-1.17v-.96c.17-.17.27-.4.27-.65V9.9c0-.85-.68-1.53-1.52-1.53H3.4c-.84 0-1.52.68-1.52 1.53v1.32c0 .25.1.48.26.65v.95C1.8 13 1.06 13.42.35 14a.98.98 0 0 0-.35.75v.9c0 .2.15.35.33.35.19 0 .34-.16.34-.34v-.9c0-.1.04-.19.11-.24.8-.66 1.65-1.1 1.81-1.17a.4.4 0 0 0 .22-.36v-1.28a.33.33 0 0 0-.15-.27.26.26 0 0 1-.11-.22V9.89c-.01-.47.37-.86.84-.86ZM11.27 14a.98.98 0 0 0-.35.75v.9c0 .2.15.35.33.35.19 0 .34-.16.34-.34v-.9c0-.1.04-.19.1-.24.8-.66 1.66-1.1 1.82-1.17a.4.4 0 0 0 .22-.36v-1.28a.33.33 0 0 0-.15-.27.26.26 0 0 1-.12-.22V9.89c0-.47.39-.86.86-.86h.28c.47 0 .85.39.85.86v1.33c0 .09-.04.17-.11.22a.34.34 0 0 0-.15.27V13c0 .16.08.3.22.36.17.08 1.02.51 1.81 1.17a.3.3 0 0 1 .11.24v.9a.34.34 0 1 0 .67 0v-.9c0-.3-.13-.57-.35-.76-.7-.58-1.45-1-1.8-1.17v-.96c.18-.17.27-.4.27-.65V9.9c0-.85-.68-1.53-1.52-1.53h-.28c-.84 0-1.52.68-1.52 1.53v1.32c0 .25.1.48.27.65v.95c-.35.18-1.1.6-1.8 1.18Z" fill="#000"/></svg>