<svg width="102" height="26" fill="none" xmlns="http://www.w3.org/2000/svg"><path d="M32.94 10.17c0-1.86-1.78-3.83-4.86-3.83-3.46 0-7.26 2.57-7.84 7.7-.6 5.18 2.59 7.48 5.8 7.48 3.2 0 4.88-1.26 6.6-2.95a2.9 2.9 0 0 0-3.75-.82c-.4.2-.93.49-1.99.49-1.23 0-2.5-.57-2.5-2.9 7.93-.8 8.54-3.32 8.54-5.17Zm-3.93.3c-.05.58-.28 1.56-4.29 2.11.85-3.04 2.46-3.27 3.2-3.27.7 0 1.14.55 1.1 1.16Zm-13.43.5-1.84 5.87-1.3-10.19c-2.9 0-4.45 2.1-5.27 4.31l-2.25 5.9c-.01-.43-.31-5.84-.31-5.84A4.77 4.77 0 0 0 0 6.66l2.4 14.75c3.04-.01 4.68-2.1 5.54-4.31l1.9-5.01 1.32 9.32c3.05 0 4.69-1.96 5.57-4.1l4.28-10.65c-3.02 0-4.6 2.09-5.43 4.31Zm28.56-4.65c-1.88 0-3.32 1.03-4.53 2.56v-.02L40.7 0c-2.5 0-4.53 2.2-4.92 5.47l-1.9 15.82c1.44 0 2.97-.42 3.79-1.5a4.17 4.17 0 0 0 3.46 1.73c4.21 0 7.1-4.96 7.1-9.61-.03-4.25-2.06-5.6-4.09-5.6Zm-.39 7.6c-.44 2.6-1.87 4.37-3.24 4.37-1.4 0-1.98-.63-1.98-.63.26-2.27.43-3.67.93-4.87.5-1.2 1.7-3.12 2.95-3.12 1.23 0 1.78 1.65 1.34 4.26Zm15-7.26h-2.94l.02-.15c.2-1.94.65-2.97 2.15-3.13 1.03-.1 1.48-.64 1.6-1.23l.36-2.06c-5.9-.04-7.76 2.54-8.24 6.48l-.01.1h-.07c-.95 0-2.01 1.1-2.2 2.49l-.05.5h1.96l-1.65 13.85-.5 2.48.2.01c2.76-.1 4.53-2.31 4.92-5.52l1.29-10.81h.92c.9 0 1.97-.92 2.16-2.46l.08-.55Zm15.3-.25c-3.4 0-6.6 2.53-7.59 6.5-.98 3.98.51 8.7 5.5 8.7 5 0 7.87-4.9 7.87-8.99 0-4.05-2.71-6.21-5.78-6.21Zm1.37 7.39c-.17 1.8-.95 4.54-3.1 4.54-2.16 0-1.86-3.2-1.64-4.72.23-1.62 1.12-3.94 3.05-3.94 1.73 0 1.9 2.09 1.7 4.12Zm21.18-2.83-1.84 5.87-1.3-10.19c-2.9 0-4.46 2.1-5.28 4.31l-2.24 5.9-.32-5.84a4.77 4.77 0 0 0-4.6-4.36l2.38 14.75c3.04-.01 4.68-2.1 5.54-4.31l1.9-5.01c0 .2 1.3 9.32 1.3 9.32 3.06 0 4.7-1.96 5.58-4.1L102 6.67c-3 0-4.6 2.09-5.4 4.31ZM61.53.1l-2.47 20.22-.5 2.5h.2c2.66-.03 4.55-2.4 4.9-5.38l1.43-11.6C65.52 2.3 63.44.1 61.53.1Z" fill="#4353FF"/></svg>